<svg xmlns="http://www.w3.org/2000/svg" width="60" height="60" viewBox="0 0 60 60" fill="none">
<rect width="60" height="59.8681" fill="none"/>
<path d="M30 59.8681C46.5685 59.8681 60 46.4662 60 29.9341C60 13.4019 46.5685 0 30 0C13.4315 0 0 13.4019 0 29.9341C0 46.4662 13.4315 59.8681 30 59.8681Z" fill="#009BA9"/> 
<path d="M37.3398 26.4018C39.3498 26.4018 40.8498 26.4018 41.4698 26.4018L42.4798 23.9473C42.2798 23.9373 42.0798 23.9373 41.8798 23.9373C41.8698 23.9373 41.4298 23.9373 40.7098 23.9373H37.9798C37.2898 23.9572 37.4598 23.139 37.5098 22.9694C39.2498 16.4238 40.7198 14.4981 43.0898 14.6078C44.1498 14.6577 44.5898 14.8872 45.1398 15.436C45.6098 15.895 45.6198 16.1544 46.4098 14.8273C47.3598 13.2309 47.3998 13.161 47.6798 12.6921C47.8698 12.3728 48.3398 11.8739 47.4598 11.8539C36.1798 11.6543 36.0198 15.9449 32.1598 23.2687C31.7498 23.9572 31.2998 23.9273 30.0098 23.9273C30.0098 23.9273 27.8898 23.9273 27.1798 23.9273C25.6198 23.9273 23.5198 24.1269 21.8698 25.3542C20.5798 26.312 18.6898 28.148 18.6798 31.2512C18.6798 33.0672 19.5498 34.9131 20.3098 35.7313C21.2298 36.7191 21.7898 37.1881 22.5998 37.5573C22.8498 37.667 22.9098 37.6471 22.9898 37.6271C23.1698 37.5872 23.2998 37.4675 23.4198 37.3677C25.3398 35.6814 25.4498 35.5916 26.1798 34.973C26.4798 34.7036 26.2498 34.5339 25.8998 34.504C24.4198 34.3743 23.4898 34.0051 22.8798 33.3765C22.1398 32.6281 21.9698 31.8798 21.8998 31.1614C21.7298 29.2955 23.1698 27.7389 24.4098 27.0404C25.1498 26.6214 26.1598 26.3919 27.5498 26.3919C29.5098 26.3919 30.0498 26.4617 30.2998 26.7112C30.5498 26.9506 30.7798 27.2101 30.4698 27.9883C28.6198 32.6581 27.8098 35.1326 24.2798 41.1893C22.5298 44.1827 19.2898 46.1483 14.8398 44.7015C13.8098 44.3623 13.6298 44.951 13.3398 45.4C13.0698 45.8191 12.2098 47.1262 12.0698 47.4156C11.8498 47.8646 12.4498 48.0043 12.7698 48.0142C19.9298 48.2238 23.7998 46.8967 28.0198 42.1072C31.9598 37.0683 32.7398 33.2368 35.3298 28.1181C35.7398 27.24 36.3198 26.4318 37.3398 26.4018Z" fill="white"/>
</svg>