<svg version="1.1" id="Layer_1" xmlns="http://www.w3.org/2000/svg" xmlns:xlink="http://www.w3.org/1999/xlink" x="0px" y="0px"
	 width="20%" viewBox="0 0 512 512" enable-background="new 0 0 76 58" xml:space="preserve">
<path fill="none" opacity="1.000000" stroke="none" 
	d="
M240.000000,513.000000 
	C160.368134,513.000000 80.736259,513.000000 1.052196,513.000000 
	C1.052196,342.442688 1.052196,171.885361 1.052196,1.000000 
	C81.688385,1.000000 162.377213,1.000000 243.849197,1.279380 
	C242.577011,2.764185 240.503601,3.939952 238.469604,5.180389 
	C231.291534,9.557950 224.939972,14.715130 221.561401,23.135847 
	C220.203796,28.543570 219.185577,33.770298 218.091858,39.426849 
	C218.701630,54.181923 224.691055,65.740364 237.187912,72.889809 
	C249.829727,80.122177 263.044830,80.508858 276.392334,73.059692 
	C281.108002,68.666512 285.469666,64.330589 289.989197,59.660690 
	C292.098328,53.440838 295.441193,47.623791 295.736359,41.656006 
	C296.577179,24.656769 288.852356,12.003457 273.561493,4.129307 
	C272.198608,3.427472 271.179016,2.058911 270.000000,1.000001 
	C350.964661,1.000000 431.929321,1.000000 512.947021,1.000000 
	C512.947021,171.556824 512.947021,342.113678 512.947021,513.000000 
	C433.311615,513.000000 353.622803,513.000000 273.150696,512.751587 
	C272.911682,511.946686 273.455963,511.390137 274.402710,510.902069 
	C280.549194,508.686951 286.293182,506.403381 292.392822,504.060913 
	C297.846436,500.039856 302.944397,496.077728 308.349121,491.974945 
	C312.786774,487.592468 316.917664,483.350647 321.353210,478.971375 
	C323.787750,476.592590 325.917664,474.351257 328.353943,471.971558 
	C331.145325,469.236816 333.630341,466.640411 336.418457,463.911316 
	C339.496613,460.888947 342.271698,457.999298 345.354004,454.970856 
	C349.456146,450.924408 353.251099,447.016754 357.353455,442.970764 
	C361.146057,439.234436 364.631226,435.636444 368.420227,431.907104 
	C372.520233,427.864807 376.316376,423.953827 380.416992,419.911407 
	C386.162994,414.223907 391.604553,408.667816 397.354797,402.972839 
	C403.866943,397.166321 408.660126,390.656006 410.398010,381.893677 
	C410.834808,380.687958 410.826508,379.679901 411.020233,378.712280 
	C413.678314,365.433960 409.231384,354.308136 400.257935,344.845123 
	C392.074402,336.215118 381.710358,333.205322 369.931641,333.930664 
	C360.391449,334.518158 352.212585,337.581757 345.585266,345.079346 
	C340.169434,350.435211 335.060059,355.662750 329.641632,361.025269 
	C323.205994,367.404846 317.079437,373.649536 310.644104,380.029449 
	C306.188629,384.426788 302.041992,388.688904 297.597046,393.066589 
	C296.809937,392.453827 296.321075,391.725433 295.902344,390.533295 
	C295.926025,382.379150 295.879578,374.688751 295.903320,366.534821 
	C295.926971,360.046478 295.880432,354.021667 295.903992,347.533142 
	C295.927917,340.046173 295.881744,333.022888 295.906616,325.538208 
	C295.930573,320.383545 295.883484,315.690247 295.905975,310.536987 
	C295.928131,305.717438 295.880676,301.357819 295.904816,296.534546 
	C295.929260,288.046021 295.882141,280.021179 295.905090,271.532745 
	C295.927826,264.712463 295.880524,258.355713 295.905029,251.536987 
	C295.929016,246.048996 295.881195,241.023026 295.904846,235.534439 
	C295.928497,229.713974 295.880646,224.356094 295.904724,218.535583 
	C295.928741,212.714386 295.880798,207.355835 295.904999,201.534119 
	C295.929474,195.046219 295.881836,189.021515 295.906006,182.533264 
	C295.929657,174.711807 295.881500,167.353882 295.905212,159.532486 
	C295.985168,153.258011 296.185364,147.439529 295.959442,141.637650 
	C295.548096,131.073135 292.049316,121.611008 284.502899,114.057587 
	C272.378082,101.921577 253.562927,99.414238 239.155350,107.193626 
	C234.118057,109.913513 230.318008,114.924774 225.626343,119.034676 
	C221.129486,125.504593 218.166061,132.243011 218.091766,140.460236 
	C218.067322,146.948120 218.117416,152.972748 218.093384,159.460022 
	C218.068558,165.281342 218.117859,170.640015 218.093262,176.461578 
	C218.068573,182.615311 218.117752,188.306168 218.093063,194.458252 
	C218.068436,199.612595 218.117676,204.305725 218.093735,209.462280 
	C218.068680,216.282593 218.116821,222.639526 218.090820,229.460114 
	C218.066757,237.948669 218.116821,245.973557 218.094391,254.459747 
	C218.069275,259.613007 218.116638,264.304993 218.090790,269.458221 
	C218.066620,274.613037 218.115662,279.306610 218.092896,284.463806 
	C218.069458,291.617371 218.117859,298.307312 218.093613,305.460846 
	C218.069687,312.282379 218.118378,318.640350 218.094772,325.462036 
	C218.070923,333.283081 218.119370,340.640320 218.095673,348.457520 
	C218.071533,353.277649 218.119522,357.637878 218.095596,362.461731 
	C218.071548,369.283020 218.119415,375.640656 218.095978,382.449890 
	C218.024673,386.442596 218.024673,389.983734 218.024673,394.586243 
	C200.986954,377.525269 184.533661,361.728333 168.894165,345.163086 
	C157.418137,333.007782 133.504837,329.614807 119.574692,340.092255 
	C116.804703,342.470398 114.345093,344.714203 111.573700,347.097565 
	C109.469620,350.144318 107.677315,353.051575 105.559479,356.155701 
	C104.211380,361.567749 103.188812,366.782928 102.095619,372.420807 
	C102.860748,382.731079 105.548752,391.850830 113.025146,399.350647 
	C128.403091,414.785034 143.641800,429.912048 159.021194,445.346130 
	C174.572525,461.064148 189.945923,476.512604 205.407654,491.872101 
	C214.727631,501.130463 225.564377,507.854095 238.436142,511.077087 
	C239.077698,511.237732 239.484100,512.337524 240.000000,513.000000 
z"/>
<path fill="#70E5F1" opacity="1.000000" stroke="none" 
	d="
M221.900787,22.954849 
	C224.939972,14.715130 231.291534,9.557950 238.469604,5.180389 
	C240.503601,3.939952 242.577011,2.764185 244.316177,1.279380 
	C252.354233,1.000000 260.708466,1.000000 269.531342,1.000001 
	C271.179016,2.058911 272.198608,3.427472 273.561493,4.129307 
	C288.852356,12.003457 296.577179,24.656769 295.736359,41.656006 
	C295.441193,47.623791 292.098328,53.440838 289.611023,59.658424 
	C287.652222,59.614323 286.063782,59.526657 284.832275,58.818390 
	C271.630585,51.225796 258.521057,43.472744 245.310867,35.895123 
	C237.577744,31.459257 229.708694,27.260351 221.900787,22.954849 
z"/>
<path fill="#5257E5" opacity="1.000000" stroke="none" 
	d="
M274.000244,510.833618 
	C273.455963,511.390137 272.911682,511.946686 272.683716,512.751587 
	C262.312439,513.000000 251.624878,513.000000 240.468658,513.000000 
	C239.484100,512.337524 239.077698,511.237732 238.436142,511.077087 
	C225.564377,507.854095 214.727631,501.130463 205.407654,491.872101 
	C189.945923,476.512604 174.572525,461.064148 159.432053,445.337463 
	C161.618469,445.446411 163.755814,445.465179 165.412079,446.367218 
	C171.982910,449.945862 178.399017,453.808167 184.880264,457.551819 
	C210.227005,472.192352 235.616013,486.760468 260.889526,501.526276 
	C265.498932,504.219330 269.641937,507.710754 274.000244,510.833618 
z"/>
<path fill="#5461E6" opacity="1.000000" stroke="none" 
	d="
M308.042358,492.115601 
	C302.944397,496.077728 297.846436,500.039856 292.328735,503.711670 
	C290.497742,502.089142 289.280365,500.422607 287.646149,499.474640 
	C261.207031,484.137604 234.659790,468.986633 208.249527,453.600433 
	C177.975021,435.962952 147.819473,418.121246 117.573402,400.434692 
	C116.206940,399.635681 114.457153,399.492188 112.885910,399.043335 
	C105.548752,391.850830 102.860748,382.731079 102.473907,372.424561 
	C104.765602,372.658905 106.738457,373.076874 108.426392,374.010162 
	C113.219749,376.660370 117.873024,379.562317 122.623405,382.292145 
	C152.279877,399.334412 181.967697,416.322235 211.606354,433.395447 
	C241.243591,450.467834 270.872498,467.555756 300.390106,484.833221 
	C303.348206,486.564697 305.510651,489.655579 308.042358,492.115601 
z"/>
<path fill="#5667E7" opacity="1.000000" stroke="none" 
	d="
M308.349121,491.974915 
	C305.510651,489.655579 303.348206,486.564697 300.390106,484.833221 
	C270.872498,467.555756 241.243591,450.467834 211.606354,433.395447 
	C181.967697,416.322235 152.279877,399.334412 122.623405,382.292145 
	C117.873024,379.562317 113.219749,376.660370 108.426392,374.010162 
	C106.738457,373.076874 104.765602,372.658905 102.544540,372.001892 
	C103.188812,366.782928 104.211380,361.567749 105.939072,356.177887 
	C108.036705,356.507996 109.541473,356.818176 110.804703,357.547028 
	C126.933243,366.852478 143.018799,376.232391 159.131897,385.564667 
	C182.294785,398.979950 205.462250,412.387390 228.644760,425.768707 
	C248.660446,437.322144 268.706482,448.822998 288.726166,460.369537 
	C299.514282,466.591705 310.275330,472.860840 321.048584,479.108826 
	C316.917664,483.350647 312.786774,487.592468 308.349121,491.974915 
z"/>
<path fill="#5872E8" opacity="1.000000" stroke="none" 
	d="
M345.046783,455.109650 
	C342.271698,457.999298 339.496613,460.888947 336.047638,463.846924 
	C332.954590,462.850647 330.425537,461.980621 328.135468,460.687408 
	C318.586609,455.295074 309.107544,449.779053 299.606659,444.301819 
	C274.560394,429.862671 249.511658,415.427734 224.472290,400.976624 
	C204.181793,389.266205 183.872070,377.588531 163.630264,365.794434 
	C148.998108,357.268829 134.463303,348.576111 119.885071,339.957947 
	C133.504837,329.614807 157.418137,333.007782 168.894165,345.163086 
	C184.533661,361.728333 200.986954,377.525269 218.024673,394.586243 
	C218.024673,389.983734 218.024673,386.442596 218.457672,382.466736 
	C228.904800,387.551117 238.998398,392.931488 248.917480,398.616333 
	C274.287415,413.156464 299.610687,427.778870 324.882507,442.488800 
	C331.732025,446.475708 338.332184,450.890961 345.046783,455.109650 
z"/>
<path fill="#535AE6" opacity="1.000000" stroke="none" 
	d="
M113.025146,399.350677 
	C114.457153,399.492188 116.206940,399.635681 117.573402,400.434692 
	C147.819473,418.121246 177.975021,435.962952 208.249527,453.600433 
	C234.659790,468.986633 261.207031,484.137604 287.646149,499.474640 
	C289.280365,500.422607 290.497742,502.089142 291.973114,503.770630 
	C286.293182,506.403381 280.549194,508.686951 274.402710,510.902069 
	C269.641937,507.710754 265.498932,504.219330 260.889526,501.526276 
	C235.616013,486.760468 210.227005,472.192352 184.880264,457.551819 
	C178.399017,453.808167 171.982910,449.945862 165.412079,446.367218 
	C163.755814,445.465179 161.618469,445.446411 159.291351,445.030396 
	C143.641800,429.912048 128.403091,414.785034 113.025146,399.350677 
z"/>
<path fill="#576CE7" opacity="1.000000" stroke="none" 
	d="
M321.353210,478.971375 
	C310.275330,472.860840 299.514282,466.591705 288.726166,460.369537 
	C268.706482,448.822998 248.660446,437.322144 228.644760,425.768707 
	C205.462250,412.387390 182.294785,398.979950 159.131897,385.564667 
	C143.018799,376.232391 126.933243,366.852478 110.804703,357.547028 
	C109.541473,356.818176 108.036705,356.507996 106.264595,355.981018 
	C107.677315,353.051575 109.469620,350.144318 111.949539,347.120056 
	C113.703568,347.419739 114.845062,347.706360 115.825333,348.272278 
	C137.570541,360.825073 159.275101,373.448334 181.033447,385.978210 
	C225.703354,411.701874 270.419952,437.344604 315.056061,463.126740 
	C319.600098,465.751434 323.727081,469.098206 328.047546,472.109924 
	C325.917664,474.351257 323.787750,476.592590 321.353210,478.971375 
z"/>
<path fill="#5978E8" opacity="1.000000" stroke="none" 
	d="
M345.354004,454.970856 
	C338.332184,450.890961 331.732025,446.475708 324.882507,442.488800 
	C299.610687,427.778870 274.287415,413.156464 248.917480,398.616333 
	C238.998398,392.931488 228.904800,387.551117 218.528992,382.015198 
	C218.119415,375.640656 218.071548,369.283020 218.451538,362.478577 
	C219.366638,362.131622 219.922546,362.112518 220.331146,362.348511 
	C234.867050,370.742584 249.386642,379.164886 263.913757,387.574219 
	C290.954102,403.227051 318.028473,418.821625 345.007965,434.578705 
	C349.238373,437.049408 353.044006,440.247406 357.046051,443.109100 
	C353.251099,447.016754 349.456146,450.924408 345.354004,454.970856 
z"/>
<path fill="#576EE7" opacity="1.000000" stroke="none" 
	d="
M328.353943,471.971588 
	C323.727081,469.098206 319.600098,465.751434 315.056061,463.126740 
	C270.419952,437.344604 225.703354,411.701874 181.033447,385.978210 
	C159.275101,373.448334 137.570541,360.825073 115.825333,348.272278 
	C114.845062,347.706360 113.703568,347.419739 112.261314,346.980530 
	C114.345093,344.714203 116.804703,342.470398 119.574692,340.092255 
	C134.463303,348.576111 148.998108,357.268829 163.630264,365.794434 
	C183.872070,377.588531 204.181793,389.266205 224.472290,400.976624 
	C249.511658,415.427734 274.560394,429.862671 299.606659,444.301819 
	C309.107544,449.779053 318.586609,455.295074 328.135468,460.687408 
	C330.425537,461.980621 332.954590,462.850647 335.744537,463.979645 
	C333.630341,466.640411 331.145325,469.236816 328.353943,471.971588 
z"/>
<path fill="#6AC7EF" opacity="1.000000" stroke="none" 
	d="
M225.952942,118.889641 
	C230.318008,114.924774 234.118057,109.913513 239.155350,107.193626 
	C253.562927,99.414238 272.378082,101.921577 284.502899,114.057587 
	C292.049316,121.611008 295.548096,131.073135 295.959442,141.637650 
	C296.185364,147.439529 295.985168,153.258011 295.565430,159.470413 
	C277.932831,149.912399 260.676514,140.013443 243.510269,129.960617 
	C237.543121,126.466148 231.798950,122.590950 225.952942,118.889641 
z"/>
<path fill="#5D88EA" opacity="1.000000" stroke="none" 
	d="
M310.952881,379.894196 
	C317.079437,373.649536 323.205994,367.404846 329.809387,361.328674 
	C331.271027,362.365662 332.143341,363.428497 333.257477,364.073608 
	C350.918701,374.300018 368.669312,384.373810 386.250793,394.734741 
	C390.143066,397.028503 393.462769,400.293823 397.046082,403.111755 
	C391.604553,408.667816 386.162994,414.223907 380.055725,419.849670 
	C378.173340,419.399872 376.888580,418.998535 375.750214,418.343079 
	C360.111816,409.338440 344.452820,400.368225 328.890808,391.232910 
	C322.793823,387.653839 316.925415,383.685333 310.952881,379.894196 
z"/>
<path fill="#5A7DE9" opacity="1.000000" stroke="none" 
	d="
M357.353455,442.970764 
	C353.044006,440.247406 349.238373,437.049408 345.007965,434.578705 
	C318.028473,418.821625 290.954102,403.227051 263.913757,387.574219 
	C249.386642,379.164886 234.867050,370.742584 220.331146,362.348511 
	C219.922546,362.112518 219.366638,362.131622 218.523468,362.014954 
	C218.119522,357.637878 218.071533,353.277649 218.436279,348.521423 
	C237.455048,358.790344 256.014038,369.538666 274.691650,380.076660 
	C281.594818,383.971497 288.777191,387.371429 295.832245,390.997070 
	C296.321075,391.725433 296.809937,392.453827 297.903381,393.234558 
	C315.692780,403.201233 332.827972,413.203094 350.089935,422.981140 
	C355.933868,426.291382 362.098389,429.035614 368.116394,432.038483 
	C364.631226,435.636444 361.146057,439.234436 357.353455,442.970764 
z"/>
<path fill="#619CEB" opacity="1.000000" stroke="none" 
	d="
M295.835022,271.996307 
	C295.882141,280.021179 295.929260,288.046021 295.541138,296.518188 
	C293.708221,296.460663 292.200531,296.148254 290.929810,295.421570 
	C276.787201,287.333618 262.706146,279.137909 248.556885,271.061707 
	C238.467499,265.302795 228.299698,259.681274 218.166901,253.998444 
	C218.116821,245.973557 218.066757,237.948669 218.448303,229.477737 
	C219.367264,229.131897 219.922821,229.113632 220.332031,229.349396 
	C235.743851,238.228882 251.093475,247.217529 266.560150,256.000122 
	C276.228638,261.490295 286.070801,266.674713 295.835022,271.996307 
z"/>
<path fill="#5C83E9" opacity="1.000000" stroke="none" 
	d="
M295.902344,390.533295 
	C288.777191,387.371429 281.594818,383.971497 274.691650,380.076660 
	C256.014038,369.538666 237.455048,358.790344 218.508408,348.061523 
	C218.119370,340.640320 218.070923,333.283081 218.473083,325.465759 
	C220.347687,325.382965 221.937881,325.471405 223.170715,326.180878 
	C241.122818,336.512024 258.981415,347.006256 276.968048,357.276428 
	C283.105743,360.781006 289.536346,363.772491 295.833130,366.998383 
	C295.879578,374.688751 295.926025,382.379150 295.902344,390.533295 
z"/>
<path fill="#5E91EA" opacity="1.000000" stroke="none" 
	d="
M397.354828,402.972870 
	C393.462769,400.293823 390.143066,397.028503 386.250793,394.734741 
	C368.669312,384.373810 350.918701,374.300018 333.257477,364.073608 
	C332.143341,363.428497 331.271027,362.365662 330.118469,361.193726 
	C335.060059,355.662750 340.169434,350.435211 345.906128,345.229370 
	C356.166809,350.743103 365.836395,356.172638 375.424072,361.743225 
	C387.001282,368.469757 398.508972,375.315857 410.046783,382.110168 
	C408.660126,390.656006 403.866943,397.166321 397.354828,402.972870 
z"/>
<path fill="#68BFEE" opacity="1.000000" stroke="none" 
	d="
M225.626343,119.034676 
	C231.798950,122.590950 237.543121,126.466148 243.510269,129.960617 
	C260.676514,140.013443 277.932831,149.912399 295.493591,159.933899 
	C295.881500,167.353882 295.929657,174.711807 295.542236,182.517273 
	C293.708954,182.460373 292.198761,182.151398 290.930603,181.421738 
	C275.079865,172.301941 259.296082,163.065460 243.426544,153.978729 
	C235.075745,149.197144 226.590698,144.649994 218.166275,139.996994 
	C218.166061,132.243011 221.129486,125.504593 225.626343,119.034676 
z"/>
<path fill="#5E8FEA" opacity="1.000000" stroke="none" 
	d="
M295.835571,325.999634 
	C295.881744,333.022888 295.927917,340.046173 295.547913,347.517578 
	C279.829742,339.248962 264.584045,330.449707 249.229630,321.844391 
	C238.955109,316.086029 228.526123,310.603302 218.166260,304.997253 
	C218.117859,298.307312 218.069458,291.617371 218.436844,284.528442 
	C238.742050,295.424805 258.576141,306.819458 278.556763,317.951111 
	C284.092743,321.035339 290.063995,323.338257 295.835571,325.999634 
z"/>
<path fill="#6099EB" opacity="1.000000" stroke="none" 
	d="
M410.398010,381.893677 
	C398.508972,375.315857 387.001282,368.469757 375.424072,361.743225 
	C365.836395,356.172638 356.166809,350.743103 346.212646,345.101074 
	C352.212585,337.581757 360.391449,334.518158 369.931641,333.930664 
	C381.710358,333.205322 392.074402,336.215118 400.257935,344.845123 
	C409.231384,354.308136 413.678314,365.433960 411.020233,378.712280 
	C410.826508,379.679901 410.834808,380.687958 410.398010,381.893677 
z"/>
<path fill="#63A6EC" opacity="1.000000" stroke="none" 
	d="
M295.905090,271.532745 
	C286.070801,266.674713 276.228638,261.490295 266.560150,256.000122 
	C251.093475,247.217529 235.743851,238.228882 220.332031,229.349396 
	C219.922821,229.113632 219.367264,229.131897 218.522461,229.014069 
	C218.116821,222.639526 218.068680,216.282593 218.451141,209.479172 
	C219.656494,209.292236 220.503052,209.427979 221.195618,209.829407 
	C240.670593,221.117020 260.094879,232.492706 279.615295,243.700989 
	C284.875336,246.721191 290.419495,249.246490 295.833252,251.998978 
	C295.880524,258.355713 295.927826,264.712463 295.905090,271.532745 
z"/>
<path fill="#5D88EA" opacity="1.000000" stroke="none" 
	d="
M218.093628,305.460846 
	C228.526123,310.603302 238.955109,316.086029 249.229630,321.844391 
	C264.584045,330.449707 279.829742,339.248962 295.477783,347.981293 
	C295.880432,354.021667 295.926971,360.046478 295.903320,366.534821 
	C289.536346,363.772491 283.105743,360.781006 276.968048,357.276428 
	C258.981415,347.006256 241.122818,336.512024 223.170715,326.180878 
	C221.937881,325.471405 220.347687,325.382965 218.545380,325.002014 
	C218.118378,318.640350 218.069687,312.282379 218.093628,305.460846 
z"/>
<path fill="#67B9EE" opacity="1.000000" stroke="none" 
	d="
M218.091766,140.460236 
	C226.590698,144.649994 235.075745,149.197144 243.426544,153.978729 
	C259.296082,163.065460 275.079865,172.301941 290.930603,181.421738 
	C292.198761,182.151398 293.708954,182.460373 295.470459,182.980820 
	C295.881836,189.021515 295.929474,195.046219 295.547150,201.518066 
	C294.629761,201.865662 294.073853,201.885101 293.664856,201.649490 
	C278.253723,192.770493 262.904449,183.782990 247.439117,174.999756 
	C237.770920,169.508911 227.930603,164.321152 218.167511,158.997391 
	C218.117416,152.972748 218.067322,146.948120 218.091766,140.460236 
z"/>
<path fill="#65AFED" opacity="1.000000" stroke="none" 
	d="
M295.832794,218.998230 
	C295.880646,224.356094 295.928497,229.713974 295.525208,235.531769 
	C293.055298,235.321289 290.853088,234.969986 289.046143,233.931183 
	C270.662933,223.362610 252.379669,212.619980 233.984283,202.072845 
	C228.854691,199.131744 223.447037,196.675629 218.166931,193.997040 
	C218.117752,188.306168 218.068573,182.615311 218.437531,176.526703 
	C233.052933,184.073334 247.239090,192.037582 261.450897,199.955765 
	C272.895447,206.332138 284.371002,212.652832 295.832794,218.998230 
z"/>
<path fill="#5C83E9" opacity="1.000000" stroke="none" 
	d="
M368.420227,431.907166 
	C362.098389,429.035614 355.933868,426.291382 350.089935,422.981140 
	C332.827972,413.203094 315.692780,403.201233 298.201660,393.118988 
	C302.041992,388.688904 306.188629,384.426788 310.644104,380.029449 
	C316.925415,383.685333 322.793823,387.653839 328.890808,391.232910 
	C344.452820,400.368225 360.111816,409.338440 375.750214,418.343079 
	C376.888580,418.998535 378.173340,419.399872 379.751282,419.981110 
	C376.316376,423.953827 372.520233,427.864807 368.420227,431.907166 
z"/>
<path fill="#66B4ED" opacity="1.000000" stroke="none" 
	d="
M295.904724,218.535583 
	C284.371002,212.652832 272.895447,206.332138 261.450897,199.955765 
	C247.239090,192.037582 233.052933,184.073334 218.511414,176.063843 
	C218.117859,170.640015 218.068558,165.281342 218.093384,159.460022 
	C227.930603,164.321152 237.770920,169.508911 247.439117,174.999756 
	C262.904449,183.782990 278.253723,192.770493 293.664856,201.649490 
	C294.073853,201.885101 294.629761,201.865662 295.475006,201.981232 
	C295.880798,207.355835 295.928741,212.714386 295.904724,218.535583 
z"/>
<path fill="#5E91EA" opacity="1.000000" stroke="none" 
	d="
M295.906616,325.538239 
	C290.063995,323.338257 284.092743,321.035339 278.556763,317.951111 
	C258.576141,306.819458 238.742050,295.424805 218.508667,284.064819 
	C218.115662,279.306610 218.066620,274.613037 218.455933,269.476196 
	C220.732224,269.755829 222.692169,270.265167 224.389145,271.234802 
	C241.204590,280.842865 257.923401,290.621155 274.786560,300.144073 
	C281.655518,304.023163 288.811157,307.394592 295.836365,310.996979 
	C295.883484,315.690247 295.930573,320.383545 295.906616,325.538239 
z"/>
<path fill="#64A9EC" opacity="1.000000" stroke="none" 
	d="
M218.093063,194.458252 
	C223.447037,196.675629 228.854691,199.131744 233.984283,202.072845 
	C252.379669,212.619980 270.662933,223.362610 289.046143,233.931183 
	C290.853088,234.969986 293.055298,235.321289 295.453705,235.994385 
	C295.881195,241.023026 295.929016,246.048996 295.905029,251.536987 
	C290.419495,249.246490 284.875336,246.721191 279.615295,243.700989 
	C260.094879,232.492706 240.670593,221.117020 221.195618,209.829407 
	C220.503052,209.427979 219.656494,209.292236 218.524323,209.015778 
	C218.117676,204.305725 218.068436,199.612595 218.093063,194.458252 
z"/>
<path fill="#6FDDF1" opacity="1.000000" stroke="none" 
	d="
M221.561401,23.135845 
	C229.708694,27.260351 237.577744,31.459257 245.310867,35.895123 
	C258.521057,43.472744 271.630585,51.225796 284.832275,58.818390 
	C286.063782,59.526657 287.652222,59.614323 289.453125,59.992401 
	C285.469666,64.330589 281.108002,68.666512 276.329468,72.708069 
	C274.543274,71.077049 273.373016,69.403969 271.772949,68.457405 
	C259.834229,61.394661 247.885406,54.341675 235.780319,47.570675 
	C230.090851,44.388275 224.049332,41.835258 218.167358,38.997025 
	C219.185577,33.770298 220.203796,28.543570 221.561401,23.135845 
z"/>
<path fill="#6099EB" opacity="1.000000" stroke="none" 
	d="
M295.905975,310.536987 
	C288.811157,307.394592 281.655518,304.023163 274.786560,300.144073 
	C257.923401,290.621155 241.204590,280.842865 224.389145,271.234802 
	C222.692169,270.265167 220.732224,269.755829 218.529160,269.014893 
	C218.116638,264.304993 218.069275,259.613007 218.094391,254.459747 
	C228.299698,259.681274 238.467499,265.302795 248.556885,271.061707 
	C262.706146,279.137909 276.787201,287.333618 290.929810,295.421570 
	C292.200531,296.148254 293.708221,296.460663 295.469543,296.981842 
	C295.880676,301.357819 295.928131,305.717438 295.905975,310.536987 
z"/>
<path fill="#6DD7F0" opacity="1.000000" stroke="none" 
	d="
M218.091858,39.426849 
	C224.049332,41.835258 230.090851,44.388275 235.780319,47.570675 
	C247.885406,54.341675 259.834229,61.394661 271.772949,68.457405 
	C273.373016,69.403969 274.543274,71.077049 275.975403,72.765320 
	C263.044830,80.508858 249.829727,80.122177 237.187912,72.889809 
	C224.691055,65.740364 218.701630,54.181923 218.091858,39.426849 
z"/>
</svg>