<svg xmlns="http://www.w3.org/2000/svg" width="50" height="50" viewBox="0 0 142.398 42.094"><g transform="translate(-1287.522 -307.156)">
<path d="M1416.274,337.172l-6.807-8.4,6.621-7.18h-5.031l-5.479,6.029V321.6h-4.189v15.546h4.189v-6.757l5.523,6.779Z" fill="#FFFFFF" data-darkreader-inline-fill="" style="--darkreader-inline-fill: #4ff7ff;"></path>
<path d="M1302.077,337.149h-4.069v-2.2a5.788,5.788,0,0,1-5.062,2.652c-3.344,0-5.424-1.839-5.424-5.544V321.6h4.311v8.889c0,1.957.181,3.525,2.621,3.525,2.681,0,3.375-2.048,3.375-4.4V321.6h4.248Z" fill="#FFFFFF" data-darkreader-inline-fill="" style="--darkreader-inline-fill: #4ff7ff;"></path>
<path d="M1314.241,337.149v-6.538h-6v6.538H1304V321.6h4.248v5.634h6V321.6h4.248v15.548Z" fill="#FFFFFF" data-darkreader-inline-fill="" style="--darkreader-inline-fill: #4ff7ff;"></path>
<path d="M1328.219,324.887V337.15h-4.248V324.887h-4.441V321.6h13.133v3.284Z" fill="#FFFFFF" data-darkreader-inline-fill="" style="--darkreader-inline-fill: #4ff7ff;"></path>
<path d="M1340.491,337.6c-4.789,0-7.953-3.252-7.953-8.135,0-4.821,3.283-8.317,7.8-8.317,4.7,0,7.682,3.436,7.682,8.889v.423h-11.149c.063,2.682,1.358,4.127,3.649,4.127a3.11,3.11,0,0,0,3.162-2.259h4.1a7.166,7.166,0,0,1-7.293,5.272m-.149-13.347c-1.9,0-3.226,1.325-3.467,3.495h6.811c-.18-1.9-1.205-3.495-3.344-3.495" fill="#FFFFFF" data-darkreader-inline-fill="" style="--darkreader-inline-fill: #4ff7ff;"></path>
<path d="M1353.077,323.53a5.656,5.656,0,0,1,4.822-2.35c4.187,0,6.93,3.284,6.93,8.287,0,4.881-2.682,8.074-6.75,8.074a5.61,5.61,0,0,1-4.791-2.32v6.733h-4.248V321.6h4.037Zm.062,5.875c0,3.014,1.385,4.792,3.735,4.792,2.291,0,3.677-1.778,3.677-4.73,0-3.044-1.418-4.851-3.707-4.851-2.32,0-3.7,1.777-3.7,4.789" fill="#FFFFFF" data-darkreader-inline-fill="" style="--darkreader-inline-fill: #4ff7ff;"></path>
<path d="M1422.477,337.541c-4.789,0-7.926-3.193-7.926-8.045,0-5.031,3.166-8.346,7.987-8.346,4.156,0,6.927,2.26,7.291,5.875h-4.186a2.949,2.949,0,0,0-3.074-2.681c-2.32,0-3.707,1.868-3.707,5.061,0,3.106,1.324,4.882,3.615,4.882,1.838,0,2.985-1.084,3.315-3.133h4.128c-.543,4.038-3.314,6.387-7.443,6.387" fill="#FFFFFF" data-darkreader-inline-fill="" style="--darkreader-inline-fill: #4ff7ff;"></path>
<path d="M1392.715,321.217h-4.525c-.8.025-.6-.93-.539-1.128,2.016-7.61,3.717-9.853,6.48-9.721a3.046,3.046,0,0,1,2.383.96c.541.53.551.839,1.469-.7,1.1-1.859,1.146-1.941,1.471-2.487.218-.367.765-.954-.258-.973-13.086-.235-13.274,4.764-17.754,13.27-.479.8-.994.768-2.5.768h-3.279a10.307,10.307,0,0,0-6.166,1.654,8.171,8.171,0,0,0-1.8,12.07,8,8,0,0,0,2.652,2.125c.287.132.362.105.457.086a1.145,1.145,0,0,0,.5-.306c2.229-1.957,2.358-2.068,3.207-2.786.342-.318.077-.506-.324-.54a5.3,5.3,0,0,1-3.508-1.308,3.882,3.882,0,0,1-1.133-2.572c-.2-2.165,1.477-3.977,2.917-4.8a7.3,7.3,0,0,1,3.636-.759c2.278,0,2.905.089,3.2.369s.554.576.193,1.488a87.471,87.471,0,0,1-7.188,15.356c-2.029,3.486-5.791,5.773-10.959,4.083-1.193-.39-1.4.286-1.734.812-.309.492-1.316,2-1.479,2.344-.25.523.44.69.813.7,8.314.248,12.8-1.294,17.7-6.862,4.574-5.861,5.473-10.313,8.481-16.266.468-1.026,1.152-1.965,2.328-2.006l5.144,0c1.893,0,2.8.657,2.809,2.055-1.145-.005-1.779-.009-2.215-.009-.824,0-5.717-.069-7.908,3.8a5.462,5.462,0,0,0-.811,3.426l0,.01a4.778,4.778,0,0,0,3.741,4.074.212.212,0,0,0,.027.009,5.34,5.34,0,0,0,.883.192l.009-.006a8.754,8.754,0,0,0,1.227.083,7.086,7.086,0,0,0,5.012-1.932v1.315h4.142l0-10.81c0-4.353-3.656-5.079-6.8-5.079m2.662,10.412a3.478,3.478,0,0,1-.865,2.22,4.251,4.251,0,0,1-3.74.983,2.507,2.507,0,0,1-1.93-2.1,2.944,2.944,0,0,1,1.457-2.941,5.028,5.028,0,0,1,2.793-.79h2.287s0,1.737,0,2.627" fill="#FFFFFF" data-darkreader-inline-fill="" style="--darkreader-inline-fill: #00888e;"></path></g>
</svg>
