<svg width="49px" height="50px" viewBox="0 0 49 16" fill="none" xmlns="http://www.w3.org/2000/svg">
<path d="M1.38917526,1.375 L1.38917526,14.6108247 C1.38917526,15.3780451 0.76722031,16 8.50624516e-17,16 L0,0 L43.9484536,0 C43.9484536,0.759391531 43.3328451,1.375 42.5734536,1.375 L1.38917526,1.375 Z M47.6108247,14.625 L47.6108247,1.38917526 C47.6108247,0.621954948 48.2327797,0 49,0 L49,16 L4.92525773,16 C4.92525773,15.2406085 5.5408662,14.625 6.30025773,14.625 L47.6108247,14.625 Z M6.72291366,4.87515172 C7.66200079,4.87515172 8.38135489,5.02530632 8.88099742,5.35599547 C9.38063996,5.68668462 9.59793814,6.20058573 9.59793814,6.89771422 C9.59793814,7.33267473 9.52962751,7.68570245 9.32796456,7.95680797 C9.12630161,8.22791349 8.83585112,8.44092178 8.45660438,8.59583922 C8.58301996,8.75075666 8.71545335,8.9280153 8.85390851,9.12762047 C8.99236366,9.32722563 9.12931182,9.53576521 9.26475709,9.75324547 C9.40020235,9.97072572 9.53113081,10.1971401 9.65754639,10.4324955 C9.78396197,10.6678508 9.86844791,10.8987339 9.97680412,11.1251517 L8.42951546,11.1251517 C8.31513946,10.9225674 8.19926025,10.7170069 8.08187436,10.5084642 C7.96448846,10.2999215 7.84409447,10.0973402 7.72068879,9.90071422 C7.5972831,9.70408824 7.47538419,9.51789218 7.3549884,9.34212047 C7.23459261,9.16634876 7.11419863,9.00696493 6.99380284,8.86396422 L6.31443299,8.86396422 L6.31443299,9.73597646 C6.31443299,10.5031968 5.69247804,11.1251517 4.92525773,11.1251517 L4.92525773,5.02083922 C5.232267,4.96125559 5.51444531,4.91954767 5.84252384,4.89571422 C6.17060237,4.87188077 6.44072165,4.87515172 6.72291366,4.87515172 Z M6.81261632,6.04865172 C6.70851715,6.04865172 6.61513547,6.05163086 6.53246849,6.05758922 C6.4498015,6.06354758 6.38791476,6.06950586 6.31443299,6.07546422 L6.31443299,7.75571422 L6.70239422,7.75571422 C7.2412605,7.75571422 7.62703399,7.69017321 7.85972624,7.55908922 C8.0924185,7.42800523 8.20876289,7.20456996 8.20876289,6.88877672 C8.20876289,6.5849002 8.09088766,6.36891278 7.85513366,6.24080797 C7.61937966,6.11270316 7.27187735,6.04865172 6.81261632,6.04865172 Z M13.3643248,11.1251517 C12.930739,11.1251517 12.5565541,11.064743 12.2417589,10.9439238 C11.9269638,10.8231047 11.6671132,10.655139 11.4621993,10.4400219 C11.2572855,10.2249048 11.1058297,9.96853626 11.0078274,9.6709085 C10.9098251,9.37328074 10.8608247,9.0447164 10.8608247,8.68520564 L10.8608247,6.26417526 C10.8608247,5.49695495 11.4827797,4.875 12.25,4.875 L12.25,8.57028065 C12.25,8.81781265 12.2788805,9.02850637 12.3353061,9.20236813 C12.3917316,9.37622989 12.4689444,9.51767462 12.5669467,9.62670658 C12.6649489,9.73573853 12.7837378,9.81382781 12.9233168,9.86097676 C13.0628958,9.90812571 13.2158364,9.93169983 13.3821433,9.93169983 C13.7206966,9.93169983 13.9953958,9.82856305 14.2062492,9.62228638 C14.4171026,9.41600972 14.5231959,9.06534465 14.5231959,8.57028065 L14.5231959,6.26417526 C14.5231959,5.49695495 15.1451508,4.875 15.9123711,4.875 L15.9123711,8.68520564 C15.9123711,9.0447164 15.8618859,9.37475412 15.7609138,9.67532869 C15.6599418,9.97590326 15.5055163,10.2337452 15.2976327,10.4488623 C15.0897491,10.6639794 14.8254439,10.8304717 14.5047092,10.948344 C14.1839745,11.0662164 13.8038501,11.1251517 13.3643248,11.1251517 Z M24.878866,7.99119718 C24.878866,8.51936884 24.8225631,8.98004498 24.654009,9.37323944 C24.4854549,9.76643389 24.2840585,10.0921349 23.9740393,10.3503521 C23.6640201,10.6085694 23.286284,10.8022294 22.8408196,10.931338 C22.3953552,11.0604467 21.8957201,11.125 21.3418995,11.125 C21.0890683,11.125 20.7941031,11.1147301 20.4569948,11.0941901 C20.1198866,11.0736501 19.7735222,11.0311036 19.4484536,10.9665493 L19.4484536,5.02464789 C19.7735222,4.96596215 20.1274113,4.92634987 20.4795689,4.90580986 C20.8317266,4.88526985 21.1342165,4.875 21.3870477,4.875 C21.922809,4.875 22.4088997,4.93368486 22.8453344,5.05105634 C23.2817691,5.16842782 23.6564954,5.35328512 23.9695245,5.6056338 C24.2825535,5.85798248 24.4854549,6.18074921 24.654009,6.57394366 C24.8225631,6.96713812 24.878866,7.43955123 24.878866,7.99119718 Z M20.8376289,9.85806998 C20.9046928,9.86371335 20.9824249,9.86794581 21.0708274,9.87076749 C21.1592299,9.87358918 21.2643968,9.875 21.3863313,9.875 C22.0996481,9.875 22.628531,9.70852311 22.9729959,9.37556433 C23.3174608,9.04260556 23.4896907,8.58267788 23.4896907,7.99576749 C23.4896907,7.38064027 23.3250816,6.9150693 22.9958585,6.59904063 C22.6666354,6.28301196 22.1453733,6.125 21.4320565,6.125 C21.3345089,6.125 21.2339145,6.12641082 21.1302702,6.12923251 C21.0266259,6.13205419 20.9290797,6.1391083 20.8376289,6.15039503 L20.8376289,9.85806998 Z M30.3092784,11.125 L29.8041237,9.75 L27.5309278,9.75 C27.2274619,10.5760156 26.4409124,11.125 25.5609161,11.125 L25.5103093,11.125 L27.9097938,4.875 L29.4252577,4.875 L31.8247423,11.125 L30.3092784,11.125 Z M28.6675258,6.25 L27.7835052,8.625 L29.5515464,8.625 L28.6675258,6.25 Z M42.306701,11.125 L41.8015464,9.75 L39.5283505,9.75 C39.2248846,10.5760156 38.438335,11.125 37.5583388,11.125 L37.507732,11.125 L39.9072165,4.875 L41.4226804,4.875 L43.8221649,11.125 L42.306701,11.125 Z M40.6649485,6.25 L39.7809278,8.625 L41.5489691,8.625 L40.6649485,6.25 Z M37.2551546,4.875 C37.2551546,5.56535594 36.6955106,6.125 36.0051546,6.125 L35.3608247,6.125 L35.3608247,9.73582474 C35.3608247,10.5030451 34.7388698,11.125 33.9716495,11.125 L33.9716495,6.125 L32.0773196,6.125 L32.0773196,4.875 L37.2551546,4.875 Z" id="Combined-Shape" fill="white" fill-rule="nonzero" />
</svg>